<svg width="12" height="12" viewBox="0 0 12 12" fill="none" xmlns="http://www.w3.org/2000/svg">
<path d="M6 12C9.28235 12 12 9.27647 12 6C12 2.71765 9.27647 0 5.99412 0C2.71765 0 0 2.71765 0 6C0 9.27647 2.72353 12 6 12ZM6 11C3.22353 11 1.00588 8.77647 1.00588 6C1.00588 3.22353 3.21765 1 5.99412 1C8.77059 1 10.9941 3.22353 11 6C11.0059 8.77647 8.77647 11 6 11ZM3.37059 6.27059C3.37059 7.74118 4.54118 8.92353 5.99412 8.92353C7.44706 8.92353 8.61765 7.74118 8.61765 6.28824C8.61765 6.07059 8.42941 5.89412 8.21177 5.89412C7.99412 5.89412 7.80588 6.07059 7.80588 6.28824C7.80588 7.3 7 8.11177 5.99412 8.11177C4.98824 8.11177 4.18235 7.3 4.18235 6.28824C4.18235 5.28235 4.98824 4.48235 5.99412 4.48235C6.07059 4.48235 6.15294 4.48235 6.21177 4.49412L5.63529 5.05882C5.56471 5.12941 5.52353 5.22353 5.52353 5.32941C5.52353 5.53529 5.68824 5.7 5.89412 5.7C5.99412 5.7 6.08824 5.65294 6.15294 5.58824L7.29412 4.44706C7.44118 4.31176 7.42941 4.04706 7.29412 3.90588L6.16471 2.75294C6.1 2.68235 6 2.63529 5.89412 2.63529C5.68235 2.63529 5.52353 2.80588 5.52353 3.01176C5.52353 3.11765 5.56471 3.21176 5.62941 3.28235L6.04706 3.70588C6 3.7 5.93529 3.69412 5.88235 3.69412C4.55882 3.69412 3.37059 4.82941 3.37059 6.27059Z" fill="black"/>
</svg>
