<svg width="13" height="13" viewBox="0 0 13 13" fill="none" xmlns="http://www.w3.org/2000/svg">
<path d="M9.69942 12.2957C10.5691 12.2957 11.1507 11.7408 11.1507 10.9084V2.38728C11.1507 1.55491 10.5691 1 9.69942 1H5.74033C4.87061 1 4.28902 1.55491 4.28902 2.38728V6.86394C4.43308 6.84793 4.57715 6.83726 4.71587 6.83726C4.85994 6.83726 5.004 6.84793 5.14807 6.86928V2.52601C5.14807 2.09916 5.39884 1.85905 5.85238 1.85905H9.59271C10.0409 1.85905 10.2917 2.09916 10.2917 2.52601V10.7697C10.2917 11.1965 10.0409 11.4366 9.59271 11.4366H7.94398C7.8426 11.7621 7.68786 12.0449 7.51178 12.2957H9.69942ZM6.10849 3.52379H6.61005C6.72743 3.52379 6.81814 3.44375 6.81814 3.32637V2.81414C6.81814 2.69675 6.72743 2.61672 6.61005 2.61672H6.10849C5.99111 2.61672 5.91107 2.69675 5.91107 2.81414V3.32637C5.91107 3.44375 5.99111 3.52379 6.10849 3.52379ZM7.45843 3.52379H7.96532C8.0827 3.52379 8.17341 3.44375 8.17341 3.32637V2.81414C8.17341 2.69675 8.0827 2.61672 7.96532 2.61672H7.45843C7.34638 2.61672 7.26634 2.69675 7.26634 2.81414V3.32637C7.26634 3.44375 7.34638 3.52379 7.45843 3.52379ZM8.81369 3.52379H9.31525C9.43797 3.52379 9.52334 3.44375 9.52334 3.32637V2.81414C9.52334 2.69675 9.43797 2.61672 9.31525 2.61672H8.81369C8.70165 2.61672 8.62161 2.69675 8.62161 2.81414V3.32637C8.62161 3.44375 8.70165 3.52379 8.81369 3.52379ZM6.10849 4.96976H6.61005C6.72743 4.96976 6.81814 4.88973 6.81814 4.77768V4.26012C6.81814 4.14273 6.72743 4.06269 6.61005 4.06269H6.10849C5.99111 4.06269 5.91107 4.14273 5.91107 4.26012V4.77768C5.91107 4.88973 5.99111 4.96976 6.10849 4.96976ZM7.45843 4.96976H7.96532C8.0827 4.96976 8.17341 4.88973 8.17341 4.77768V4.26012C8.17341 4.14273 8.0827 4.06269 7.96532 4.06269H7.45843C7.34638 4.06269 7.26634 4.14273 7.26634 4.26012V4.77768C7.26634 4.88973 7.34638 4.96976 7.45843 4.96976ZM8.81369 4.96976H9.31525C9.43797 4.96976 9.52334 4.88973 9.52334 4.77768V4.26012C9.52334 4.14273 9.43797 4.06269 9.31525 4.06269H8.81369C8.70165 4.06269 8.62161 4.14273 8.62161 4.26012V4.77768C8.62161 4.88973 8.70165 4.96976 8.81369 4.96976ZM6.10849 6.42108H6.61005C6.72743 6.42108 6.81814 6.34104 6.81814 6.22365V5.71143C6.81814 5.59404 6.72743 5.51401 6.61005 5.51401H6.10849C5.99111 5.51401 5.91107 5.59404 5.91107 5.71143V6.22365C5.91107 6.34104 5.99111 6.42108 6.10849 6.42108ZM7.45843 6.42108H7.96532C8.0827 6.42108 8.17341 6.34104 8.17341 6.22365V5.71143C8.17341 5.59404 8.0827 5.51401 7.96532 5.51401H7.45843C7.34638 5.51401 7.26634 5.59404 7.26634 5.71143V6.22365C7.26634 6.34104 7.34638 6.42108 7.45843 6.42108ZM4.71054 13C6.18319 13 7.42641 11.7728 7.42641 10.2895C7.42641 8.8008 6.1992 7.57892 4.71054 7.57892C3.22721 7.57892 2 8.80614 2 10.2895C2 11.7835 3.22721 13 4.71054 13ZM3.01378 10.2895C3.01378 10.092 3.14718 9.96398 3.3446 9.96398H4.38506V8.91819C4.38506 8.7261 4.51312 8.59271 4.71054 8.59271C4.91329 8.59271 5.04135 8.7261 5.04135 8.91819V9.96398H6.08181C6.27924 9.96398 6.40729 10.092 6.40729 10.2895C6.40729 10.4869 6.27924 10.6149 6.08181 10.6149H5.04135V11.6607C5.04135 11.8582 4.91329 11.9862 4.71054 11.9862C4.51312 11.9862 4.38506 11.8582 4.38506 11.6607V10.6149H3.3446C3.14718 10.6149 3.01378 10.4869 3.01378 10.2895Z" fill="#333333"/>
</svg>
