<svg width="12" height="12" viewBox="0 0 12 12" fill="none" xmlns="http://www.w3.org/2000/svg">
<path d="M3.5418 12H7.74776C8.67171 12 9.28956 11.4105 9.28956 10.5262V1.47378C9.28956 0.589513 8.67171 0 7.74776 0H3.5418C2.61786 0 2 0.589513 2 1.47378V10.5262C2 11.4105 2.61786 12 3.5418 12ZM3.66084 11.0874C3.17903 11.0874 2.91261 10.8323 2.91261 10.3788V1.62116C2.91261 1.16769 3.17903 0.912612 3.66084 0.912612H7.63439C8.11053 0.912612 8.37695 1.16769 8.37695 1.62116V10.3788C8.37695 10.8323 8.11053 11.0874 7.63439 11.0874H3.66084ZM3.93292 2.68115H4.46575C4.59046 2.68115 4.68682 2.59613 4.68682 2.47142V1.92726C4.68682 1.80255 4.59046 1.71752 4.46575 1.71752H3.93292C3.80822 1.71752 3.72319 1.80255 3.72319 1.92726V2.47142C3.72319 2.59613 3.80822 2.68115 3.93292 2.68115ZM5.36703 2.68115H5.90553C6.03023 2.68115 6.12659 2.59613 6.12659 2.47142V1.92726C6.12659 1.80255 6.03023 1.71752 5.90553 1.71752H5.36703C5.24799 1.71752 5.16297 1.80255 5.16297 1.92726V2.47142C5.16297 2.59613 5.24799 2.68115 5.36703 2.68115ZM6.8068 2.68115H7.33963C7.47001 2.68115 7.5607 2.59613 7.5607 2.47142V1.92726C7.5607 1.80255 7.47001 1.71752 7.33963 1.71752H6.8068C6.68777 1.71752 6.60274 1.80255 6.60274 1.92726V2.47142C6.60274 2.59613 6.68777 2.68115 6.8068 2.68115ZM3.93292 4.21729H4.46575C4.59046 4.21729 4.68682 4.13226 4.68682 4.01323V3.46339C4.68682 3.33869 4.59046 3.25366 4.46575 3.25366H3.93292C3.80822 3.25366 3.72319 3.33869 3.72319 3.46339V4.01323C3.72319 4.13226 3.80822 4.21729 3.93292 4.21729ZM5.36703 4.21729H5.90553C6.03023 4.21729 6.12659 4.13226 6.12659 4.01323V3.46339C6.12659 3.33869 6.03023 3.25366 5.90553 3.25366H5.36703C5.24799 3.25366 5.16297 3.33869 5.16297 3.46339V4.01323C5.16297 4.13226 5.24799 4.21729 5.36703 4.21729ZM6.8068 4.21729H7.33963C7.47001 4.21729 7.5607 4.13226 7.5607 4.01323V3.46339C7.5607 3.33869 7.47001 3.25366 7.33963 3.25366H6.8068C6.68777 3.25366 6.60274 3.33869 6.60274 3.46339V4.01323C6.60274 4.13226 6.68777 4.21729 6.8068 4.21729ZM3.93292 5.75909H4.46575C4.59046 5.75909 4.68682 5.67407 4.68682 5.54936V5.0052C4.68682 4.88049 4.59046 4.79546 4.46575 4.79546H3.93292C3.80822 4.79546 3.72319 4.88049 3.72319 5.0052V5.54936C3.72319 5.67407 3.80822 5.75909 3.93292 5.75909ZM5.36703 5.75909H5.90553C6.03023 5.75909 6.12659 5.67407 6.12659 5.54936V5.0052C6.12659 4.88049 6.03023 4.79546 5.90553 4.79546H5.36703C5.24799 4.79546 5.16297 4.88049 5.16297 5.0052V5.54936C5.16297 5.67407 5.24799 5.75909 5.36703 5.75909ZM3.93292 10.3165H4.46575C4.59046 10.3165 4.68682 10.2315 4.68682 10.1124V9.56259C4.68682 9.44355 4.59046 9.35853 4.46575 9.35853H3.93292C3.80822 9.35853 3.72319 9.44355 3.72319 9.56259V10.1124C3.72319 10.2315 3.80822 10.3165 3.93292 10.3165ZM5.36703 10.3165H5.90553C6.03023 10.3165 6.12659 10.2315 6.12659 10.1124V9.56259C6.12659 9.44355 6.03023 9.35853 5.90553 9.35853H5.36703C5.24799 9.35853 5.16297 9.44355 5.16297 9.56259V10.1124C5.16297 10.2315 5.24799 10.3165 5.36703 10.3165ZM6.8068 10.3165H7.33963C7.47001 10.3165 7.5607 10.2315 7.5607 10.1124V9.56259C7.5607 9.44355 7.47001 9.35853 7.33963 9.35853H6.8068C6.68777 9.35853 6.60274 9.44355 6.60274 9.56259V10.1124C6.60274 10.2315 6.68777 10.3165 6.8068 10.3165Z" fill="#333333"/>
</svg>
